<svg xmlns="http://www.w3.org/2000/svg" width="49.687" height="28.594" viewBox="0 0 49.687 28.594">
  <defs>
    <style>
      .cls-1 {
        fill-rule: evenodd;
        opacity: 0.29;
      }
    </style>
  </defs>
  <path class="cls-1" d="M985.191,532.187h-5.852v-4.332H951.486v5.43H943.3v1.809h8.183v3.675h-6.72v1.81h6.72v3.674h-5.419v1.81h5.419v6.91h5.2a3.992,3.992,0,0,0,7.911,0H980.91a3.992,3.992,0,0,0,7.911,0h4.173v-11.9C992.886,535.7,989.851,532.187,985.191,532.187Zm-24.6,22.486a2.194,2.194,0,1,1,2.168-2.193A2.187,2.187,0,0,1,960.589,554.673Zm16.907-3.455H964.383a3.971,3.971,0,0,0-7.587,0H953.22v-21.5H977.5v21.5Zm7.261,3.455a2.194,2.194,0,1,1,2.168-2.193A2.187,2.187,0,0,1,984.757,554.673Zm6.286-3.455h-2.492a4.045,4.045,0,0,0-3.794-2.8,3.975,3.975,0,0,0-3.793,2.8h-1.68V534h5.853c3.63,0,5.852,2.743,5.852,7.13v10.091h0.054Z" transform="translate(-943.313 -527.844)"/>
</svg>
