<svg xmlns="http://www.w3.org/2000/svg" width="39.531" height="40" viewBox="0 0 39.531 40">
  <defs>
    <style>
      .cls-1 {
        fill-rule: evenodd;
        opacity: 0.29;
      }
    </style>
  </defs>
  <path class="cls-1" d="M723.528,556.4c0-.011,0-0.021,0-0.032s0-.042-0.007-0.063a0.234,0.234,0,0,1,0-.026,0.848,0.848,0,0,0-.054-0.173,0.064,0.064,0,0,0,0-.007l-3.757-8.34a0.7,0.7,0,0,0,.009-0.112v-3.9a0.78,0.78,0,0,0-.775-0.784h-6.883a9.512,9.512,0,0,0-3.188-3.456,9.343,9.343,0,0,0-10.164,0,9.512,9.512,0,0,0-3.188,3.456h-6.883a0.78,0.78,0,0,0-.775.784v3.776l-3.789,8.58s0,0,0,0a0.533,0.533,0,0,0-.032.087l0,0a0.751,0.751,0,0,0-.019.082,0.2,0.2,0,0,1,0,.026c0,0.021,0,.041-0.006.062s0,0.022,0,.032,0,0.014,0,.021v4.68a0.779,0.779,0,0,0,.775.783h1.178v15.334a0.78,0.78,0,0,0,.775.784h34.1a0.78,0.78,0,0,0,.775-0.784V561.882h1.153a0.779,0.779,0,0,0,.775-0.783v-4.68C723.529,556.411,723.528,556.4,723.528,556.4Zm-34.122-11.868h6.581a0.775,0.775,0,0,0,.7-0.445,7.944,7.944,0,0,1,2.854-3.259,7.805,7.805,0,0,1,8.489,0,7.949,7.949,0,0,1,2.853,3.259,0.775,0.775,0,0,0,.7.445h6.581v2.331H689.406v-2.331Zm-0.253,3.9H718.3l3.247,7.209H685.97Zm30.9,28.006H687.5v-14.55h2.834v11.531a0.78,0.78,0,0,0,.775.784h25.328a0.78,0.78,0,0,0,.775-0.784V561.882h2.835v14.55Zm-28.163-3.8V561.882h23.778V572.63H691.888Zm30.091-12.315H685.55V557.2h36.429v3.112Zm-12.237,5.629a0.769,0.769,0,0,0-1.1-.036l-1.169,1.109a0.789,0.789,0,0,0-.035,1.107,0.769,0.769,0,0,0,1.1.036l1.169-1.108A0.79,0.79,0,0,0,709.742,565.944Zm-11.316-2.359a0.768,0.768,0,0,0-1.1-.035l-2.181,2.067a0.79,0.79,0,0,0-.035,1.108,0.77,0.77,0,0,0,1.1.035l2.18-2.067A0.79,0.79,0,0,0,698.426,563.585Zm0.9,1.753-1.169,1.108a0.79,0.79,0,0,0-.035,1.108,0.768,0.768,0,0,0,1.1.036l1.169-1.109a0.79,0.79,0,0,0,.035-1.108A0.769,0.769,0,0,0,699.323,565.338Zm11.76,2.018-2.18,2.067a0.791,0.791,0,0,0-.036,1.108,0.769,0.769,0,0,0,1.1.036l2.18-2.067a0.789,0.789,0,0,0,.036-1.108A0.769,0.769,0,0,0,711.083,567.356Z" transform="translate(-684 -538)"/>
</svg>
